<svg width="1945" height="1766" xmlns="http://www.w3.org/2000/svg" xmlns:xlink="http://www.w3.org/1999/xlink" xml:space="preserve" overflow="hidden"><defs><filter id="fx0" x="-10%" y="-10%" width="120%" height="120%" filterUnits="userSpaceOnUse" primitiveUnits="userSpaceOnUse"><feComponentTransfer color-interpolation-filters="sRGB"><feFuncR type="discrete" tableValues="0 0"/><feFuncG type="discrete" tableValues="0 0"/><feFuncB type="discrete" tableValues="0 0"/><feFuncA type="linear" slope="0.85098" intercept="0"/></feComponentTransfer><feGaussianBlur stdDeviation="7.63889 7.63889"/></filter><clipPath id="clip1"><rect x="1053" y="230" width="1945" height="1766"/></clipPath><clipPath id="clip2"><path d="M2863.32 935.96C2855.39 935.344 2847.19 936.275 2839.17 938.959L1543.82 1372.12C1511.71 1382.86 1494.38 1417.59 1505.12 1449.7L1505.12 1449.7C1515.86 1481.81 1550.59 1499.14 1582.7 1488.4L2878.05 1055.24C2910.16 1044.5 2927.48 1009.77 2916.75 977.657 2908.69 953.575 2887.14 937.809 2863.32 935.96ZM1053 230 2998 230 2998 1996 1053 1996Z" fill-rule="evenodd" clip-rule="evenodd"/></clipPath></defs><g clip-path="url(#clip1)" transform="translate(-1053 -230)"><g clip-path="url(#clip2)"><g filter="url(#fx0)" transform="translate(1450 892)"><g><path d="M0 62.529C-1.20808e-14 27.9952 27.9954-1.20807e-14 62.5295-2.41614e-14L62.5295 0C97.0636-1.20807e-14 125.059 27.9952 125.059 62.529L125.057 1455.7C125.057 1490.24 97.0619 1518.23 62.5278 1518.23L62.5295 1518.23C27.9954 1518.23 0 1490.23 0 1455.7Z" stroke="#ADC913" stroke-width="28.05" stroke-miterlimit="8" fill="#ADC913" fill-rule="evenodd" transform="matrix(-0.317136 -0.94838 -0.94838 0.317136 1500.69 140.238)"/></g></g></g><path d="M0 61.3029C-1.18439e-14 27.4463 27.4465-1.18438e-14 61.3034-2.36876e-14L61.3034 0C95.1604-1.18438e-14 122.607 27.4463 122.607 61.3029L122.605 1427.16C122.605 1461.02 95.1588 1488.46 61.3018 1488.46L61.3034 1488.46C27.4465 1488.46 0 1461.01 0 1427.16Z" stroke="#ADC913" stroke-width="27.5" stroke-miterlimit="8" fill="#ADC913" fill-rule="evenodd" transform="matrix(-0.317136 -0.94838 -0.94838 0.317136 2936.19 1035.8)"/><path d="M0 61.3028C-1.51177e-14 27.4462 27.4464-1.51176e-14 61.3031-1.51176e-14L61.3031 0C95.1599-1.51176e-14 122.606 27.4462 122.606 61.3028L122.605 888.643C122.605 922.5 95.1589 949.946 61.3021 949.946L61.3031 949.945C27.4464 949.945-7.55883e-15 922.499-7.55883e-15 888.642Z" stroke="#FFC000" stroke-width="27.5" stroke-miterlimit="8" fill="#FFC000" fill-rule="evenodd" transform="matrix(-0.716396 -0.697694 -0.697694 0.716396 2190.02 931.757)"/><path d="M0 61.3026C-7.43021e-15 27.4461 27.4461-2.22906e-14 61.3026-2.97208e-14L61.3026 0C95.1591-7.4302e-15 122.605 27.4461 122.605 61.3026L122.605 872.482C122.605 906.338 95.1591 933.784 61.3026 933.784L61.3026 933.784C27.4461 933.784-7.43021e-15 906.338 0 872.482Z" stroke="#FFC000" stroke-width="27.5" stroke-miterlimit="8" fill="#FFC000" fill-rule="evenodd" transform="matrix(-0.672251 0.740323 0.740323 0.672251 2110.62 845.604)"/><path d="M2904 1583C2955.92 1583 2998 1625.08 2998 1677L2998 1677C2998 1728.91 2955.92 1770.99 2904 1770.99L1147.99 1770.99C1096.08 1770.99 1054 1728.91 1054 1676.99L1054 1677C1054 1625.08 1096.08 1583 1148 1583Z" fill="#EFEDE7" fill-rule="evenodd"/><path d="M1831.92 447.123C1844.21 415.575 1879.75 399.962 1911.3 412.249L1911.3 412.249C1942.84 424.537 1958.46 460.073 1946.17 491.62L1553.85 1498.87C1541.57 1530.42 1506.03 1546.03 1474.48 1533.74L1474.48 1533.74C1442.94 1521.46 1427.32 1485.92 1439.61 1454.37Z" stroke="#FF5532" stroke-width="27.5" stroke-miterlimit="8" fill="#FF5532" fill-rule="evenodd"/><path d="M1841.68 504.038C1822.82 475.925 1830.31 437.841 1858.42 418.974L1858.42 418.974C1886.53 400.107 1924.62 407.602 1943.49 435.714L2152.59 747.286C2171.46 775.399 2163.96 813.483 2135.85 832.35L2135.85 832.35C2107.74 851.217 2069.65 843.722 2050.79 815.609Z" stroke="#FF5532" stroke-width="27.5" stroke-miterlimit="8" fill="#FF5532" fill-rule="evenodd"/><path d="M0 61.3029C0 27.4462 27.4462-2.37682e-14 61.3029-3.16909e-14L61.3029 0C95.1596-7.92272e-15 122.606 27.4462 122.606 61.3029L122.605 436.538C122.605 470.395 95.159 497.841 61.3024 497.841L61.3029 497.841C27.4462 497.841-7.92272e-15 470.394-1.58454e-14 436.538Z" stroke="#FF5532" stroke-width="27.5" stroke-miterlimit="8" fill="#FF5532" fill-rule="evenodd" transform="matrix(-0.830337 -0.557262 -0.557262 0.830337 2406.13 453.136)"/><path d="M0 61.303C-8.12399e-15 27.4463 27.4464-1.62479e-14 61.3032-1.62479e-14L61.3032 0C95.16-1.62479e-14 122.606 27.4463 122.606 61.303L122.605 959.67C122.605 993.527 95.1589 1020.97 61.3021 1020.97L61.3032 1020.97C27.4464 1020.97-8.12399e-15 993.526 0 959.669Z" stroke="#FF5532" stroke-width="27.5" stroke-miterlimit="8" fill="#FF5532" fill-rule="evenodd" transform="matrix(-0.83743 0.546544 0.546544 0.83743 2347.6 383.663)"/><path d="M1385 324.007C1385 272.088 1427.09 230 1479.01 230L1479.01 230C1530.93 230 1573.02 272.088 1573.02 324.007L1573.02 1901.99C1573.02 1953.91 1530.93 1996 1479.01 1996L1479.01 1996C1427.09 1996 1385 1953.91 1385 1901.99Z" fill="#EFEDE7" fill-rule="evenodd"/></g></svg>