<svg width="2391" height="2392" xmlns="http://www.w3.org/2000/svg" xmlns:xlink="http://www.w3.org/1999/xlink" xml:space="preserve" overflow="hidden"><g transform="translate(-999 15)"><path d="M999.868 1181.48C999.868 521.219 1534.89-14.0236 2194.87-14.0236 2854.84-14.0236 3389.87 521.219 3389.87 1181.48 3389.87 1841.73 2854.84 2376.98 2194.87 2376.98 1534.89 2376.98 999.868 1841.73 999.868 1181.48Z" fill="#1C1C1C" fill-rule="evenodd"/><path d="M0.224114 133.231C0.224114 59.6696 59.845 0.0364501 133.391 0.0364501L133.391 0.0364501C206.937 0.0364501 266.558 59.6696 266.558 133.231L266.556 1490.54C266.556 1564.11 206.935 1623.75 133.389 1623.75L133.391 1623.74C59.845 1623.74 0.224114 1564.11 0.224114 1490.54Z" stroke="#FF5532" stroke-width="33.7236" stroke-miterlimit="8" fill="#FF5532" fill-rule="evenodd" transform="matrix(-0.966838 0.25539 0.25539 0.966838 2591.49 340.021)"/><path d="M0.189829 133.217C0.189829 59.6609 59.8136 0.0317585 133.364 0.0317585L133.364 0.0317585C206.914 0.0317585 266.537 59.6609 266.537 133.217L266.536 639.771C266.536 713.326 206.913 772.955 133.363 772.955L133.364 772.955C59.8136 772.955 0.189829 713.326 0.189829 639.771Z" stroke="#FF5532" stroke-width="33.7236" stroke-miterlimit="8" fill="#FF5532" fill-rule="evenodd" transform="matrix(-0.830275 -0.557354 -0.557354 0.830275 2668.89 443.148)"/><path d="M0.210761 133.271C0.210761 59.7197 59.8392 0.0945538 133.394 0.0945538L133.394 0.0945538C206.949 0.0945538 266.579 59.7197 266.579 133.271L266.577 1031.18C266.577 1104.72 206.948 1164.35 133.393 1164.35L133.394 1164.35C59.8392 1164.35 0.210761 1104.72 0.210761 1031.17Z" stroke="#FFC000" stroke-width="33.7236" stroke-miterlimit="8" fill="#FFC000" fill-rule="evenodd" transform="matrix(-0.625526 0.780203 0.780203 0.625526 2172.32 1014.99)"/><path d="M0.189108 133.23C0.189108 59.6837 59.8215 0.0627953 133.382 0.0627953L133.382 0.0627953C206.942 0.0627953 266.574 59.6837 266.574 133.23L266.574 1766.46C266.574 1840.01 206.942 1899.62 133.382 1899.62L133.382 1899.62C59.8215 1899.62 0.189108 1840.01 0.189108 1766.46Z" stroke="#ADC913" stroke-width="33.7236" stroke-miterlimit="8" fill="#ADC913" fill-rule="evenodd" transform="matrix(-0.317067 -0.948403 -0.948403 0.317067 3278.27 1373.29)"/><path d="M0.141109 133.28C0.141109 59.727 59.7674 0.0999672 133.321 0.0999672L133.321 0.0999672C206.873 0.0999672 266.499 59.727 266.499 133.28L266.499 973.898C266.499 1047.45 206.873 1107.08 133.321 1107.08L133.321 1107.08C59.7674 1107.08 0.141109 1047.45 0.141109 973.898Z" stroke="#FFC000" stroke-width="33.7236" stroke-miterlimit="8" fill="#FFC000" fill-rule="evenodd" transform="matrix(-0.721291 -0.692632 -0.692632 0.721291 2358.07 1199.46)"/><path d="M1774.86 469.145C1793.65 398.059 1866.54 355.648 1937.66 374.422L1937.66 374.422C2008.77 393.196 2051.2 466.041 2032.42 537.13L1685.86 1848.81C1667.08 1919.9 1594.2 1962.3 1523.08 1943.53L1523.08 1943.53C1451.96 1924.76 1409.53 1851.91 1428.32 1780.83Z" stroke="#FF5532" stroke-width="33.7236" stroke-miterlimit="8" fill="#FF5532" fill-rule="evenodd"/><path d="M1800.49 553.391C1759.48 492.317 1775.77 409.574 1836.88 368.586L1836.88 368.586C1897.99 327.598 1980.78 343.88 2021.79 404.954L2304.24 825.559C2345.25 886.636 2328.97 969.379 2267.85 1010.37L2267.85 1010.37C2206.74 1051.36 2123.95 1035.07 2082.94 973.997Z" stroke="#FF5532" stroke-width="33.7236" stroke-miterlimit="8" fill="#FF5532" fill-rule="evenodd"/></g></svg>