<svg width="1531" height="1268" xmlns="http://www.w3.org/2000/svg" xmlns:xlink="http://www.w3.org/1999/xlink" xml:space="preserve" overflow="hidden"><defs><filter id="fx0" x="-10%" y="-10%" width="120%" height="120%" filterUnits="userSpaceOnUse" primitiveUnits="userSpaceOnUse"><feComponentTransfer color-interpolation-filters="sRGB"><feFuncR type="discrete" tableValues="0 0"/><feFuncG type="discrete" tableValues="0 0"/><feFuncB type="discrete" tableValues="0 0"/><feFuncA type="linear" slope="0.4" intercept="0"/></feComponentTransfer><feGaussianBlur stdDeviation="7.63889 7.63889"/></filter><filter id="fx1" x="-10%" y="-10%" width="120%" height="120%" filterUnits="userSpaceOnUse" primitiveUnits="userSpaceOnUse"><feComponentTransfer color-interpolation-filters="sRGB"><feFuncR type="discrete" tableValues="0 0"/><feFuncG type="discrete" tableValues="0 0"/><feFuncB type="discrete" tableValues="0 0"/><feFuncA type="linear" slope="0.85098" intercept="0"/></feComponentTransfer><feGaussianBlur stdDeviation="7.63889 7.63889"/></filter><filter id="fx2" x="-10%" y="-10%" width="120%" height="120%" filterUnits="userSpaceOnUse" primitiveUnits="userSpaceOnUse"><feComponentTransfer color-interpolation-filters="sRGB"><feFuncR type="discrete" tableValues="0 0"/><feFuncG type="discrete" tableValues="0 0"/><feFuncB type="discrete" tableValues="0 0"/><feFuncA type="linear" slope="0.4" intercept="0"/></feComponentTransfer><feGaussianBlur stdDeviation="7.63889 7.63889"/></filter><clipPath id="clip3"><rect x="2400" y="907" width="1531" height="1268"/></clipPath><clipPath id="clip4"><path d="M3823.27 1568.02C3815.34 1567.4 3807.14 1568.33 3799.12 1571.01L2503.77 2004.18C2471.66 2014.92 2454.33 2049.65 2465.07 2081.76L2465.07 2081.76C2475.81 2113.87 2510.54 2131.19 2542.65 2120.45L3838 1687.29C3870.11 1676.56 3887.43 1641.82 3876.7 1609.71 3868.64 1585.63 3847.09 1569.86 3823.27 1568.02ZM2400 907 3931 907 3931 2175 2400 2175Z" fill-rule="evenodd" clip-rule="evenodd"/></clipPath><clipPath id="clip5"><path d="M2782.14 958.628C2753.67 957.022 2727.04 975.554 2719.48 1004.2L2443.47 2049.32C2434.83 2082.05 2454.36 2115.6 2487.09 2124.24 2519.82 2132.89 2553.37 2113.36 2562.01 2080.63L2838.02 1035.5C2846.66 1002.77 2827.13 969.223 2794.4 960.578 2790.31 959.498 2786.2 958.857 2782.14 958.628ZM2400 907 3931 907 3931 2175 2400 2175Z" fill-rule="evenodd" clip-rule="evenodd"/></clipPath></defs><g clip-path="url(#clip3)" transform="translate(-2400 -907)"><g filter="url(#fx0)" transform="translate(2910 906)"><g><path d="M0 62.528C-9.76845e-15 27.9948 27.995-9.76835e-15 62.5287-1.95367e-14L62.5287 0C97.0623-1.95367e-14 125.057 27.9948 125.057 62.528L125.057 1165.1C125.057 1199.63 97.0623 1227.63 62.5287 1227.63L62.5287 1227.63C27.995 1227.63-9.76845e-15 1199.63-1.95369e-14 1165.1Z" stroke="#FF5532" stroke-width="28.05" stroke-miterlimit="8" fill="#FF5532" fill-rule="evenodd" transform="matrix(-0.966853 0.255333 0.255333 0.966853 379.843 27.0001)"/><path d="M0 62.5286C-8.45502e-15 27.995 27.995-1.691e-14 62.5287-1.691e-14L62.5287 0C97.0623-1.691e-14 125.057 27.995 125.057 62.5286L125.057 468.759C125.057 503.293 97.0623 531.288 62.5287 531.288L62.5287 531.288C27.995 531.288-1.691e-14 503.293-1.691e-14 468.759Z" stroke="#FF5532" stroke-width="28.05" stroke-miterlimit="8" fill="#FF5532" fill-rule="evenodd" transform="matrix(-0.830337 -0.557262 -0.557262 0.830337 413.269 83.8923)"/></g></g><path d="M0 61.302C-9.57692e-15 27.4458 27.4461-9.57682e-15 61.3026-1.91536e-14L61.3026 0C95.1591-1.91536e-14 122.605 27.4458 122.605 61.302L122.605 1142.26C122.605 1176.11 95.1591 1203.56 61.3026 1203.56L61.3026 1203.56C27.4461 1203.56-9.57692e-15 1176.11-1.91538e-14 1142.26Z" stroke="#FF5532" stroke-width="27.5" stroke-miterlimit="8" fill="#FF5532" fill-rule="evenodd" transform="matrix(-0.966853 0.255333 0.255333 0.966853 3289.43 944.926)"/><path d="M0 61.3025C-8.28923e-15 27.4461 27.4461-1.65784e-14 61.3026-1.65784e-14L61.3026 0C95.1591-1.65784e-14 122.605 27.4461 122.605 61.3025L122.605 459.568C122.605 493.424 95.1591 520.87 61.3026 520.87L61.3026 520.87C27.4461 520.87-1.65785e-14 493.424-1.65785e-14 459.568Z" stroke="#FF5532" stroke-width="27.5" stroke-miterlimit="8" fill="#FF5532" fill-rule="evenodd" transform="matrix(-0.830337 -0.557262 -0.557262 0.830337 3322.19 1000.7)"/><path d="M0 61.3029C-6.86784e-15 27.4463 27.4463-6.86782e-15 61.3031-1.37356e-14L61.3031 0C95.1599-1.37356e-14 122.606 27.4463 122.606 61.3029L122.605 801.806C122.605 835.662 95.1589 863.109 61.3022 863.109L61.3031 863.108C27.4463 863.108 0 835.661 0 801.805Z" stroke="#FFC000" stroke-width="27.5" stroke-miterlimit="8" fill="#FFC000" fill-rule="evenodd" transform="matrix(-0.625617 0.78013 0.78013 0.625617 3006.83 1411.29)"/><g clip-path="url(#clip4)"><g filter="url(#fx1)" transform="translate(2410 1524)"><g><path d="M0 62.529C-1.20808e-14 27.9952 27.9954-1.20807e-14 62.5295-2.41614e-14L62.5295 0C97.0636-1.20807e-14 125.059 27.9952 125.059 62.529L125.057 1455.7C125.057 1490.24 97.0619 1518.23 62.5278 1518.23L62.5295 1518.23C27.9954 1518.23 0 1490.23 0 1455.7Z" stroke="#ADC913" stroke-width="28.05" stroke-miterlimit="8" fill="#ADC913" fill-rule="evenodd" transform="matrix(-0.317136 -0.94838 -0.94838 0.317136 1500.64 140.294)"/></g></g></g><path d="M0 61.3029C-1.18439e-14 27.4463 27.4465-1.18438e-14 61.3034-2.36876e-14L61.3034 0C95.1604-1.18438e-14 122.607 27.4463 122.607 61.3029L122.605 1427.16C122.605 1461.02 95.1588 1488.46 61.3018 1488.46L61.3034 1488.46C27.4465 1488.46 0 1461.01 0 1427.16Z" stroke="#ADC913" stroke-width="27.5" stroke-miterlimit="8" fill="#ADC913" fill-rule="evenodd" transform="matrix(-0.317136 -0.94838 -0.94838 0.317136 3896.14 1667.85)"/><path d="M0 61.3029C-6.98201e-15 27.4463 27.4463-6.98199e-15 61.3031-1.3964e-14L61.3031 0C95.1599-1.3964e-14 122.606 27.4463 122.606 61.3029L122.605 816.154C122.605 850.011 95.1589 877.457 61.3021 877.457L61.3031 877.456C27.4463 877.456 0 850.01 0 816.153Z" stroke="#FFC000" stroke-width="27.5" stroke-miterlimit="8" fill="#FFC000" fill-rule="evenodd" transform="matrix(-0.750117 -0.661305 -0.661305 0.750117 3091 1492.37)"/><g clip-path="url(#clip5)"><g filter="url(#fx2)" transform="translate(2399 909)"><g><path d="M322.05 84.4316C330.867 51.0429 365.082 31.1242 398.471 39.9417L398.471 39.9417C431.86 48.7593 451.779 82.9742 442.962 116.363L161.439 1182.39C152.621 1215.78 118.406 1235.7 85.0172 1226.88L85.0172 1226.88C51.6283 1218.06 31.7091 1183.85 40.5266 1150.46Z" stroke="#FF5532" stroke-width="28.05" stroke-miterlimit="8" fill="#FF5532" fill-rule="evenodd"/></g></g></g><path d="M2719.48 1004.2C2728.12 971.462 2761.66 951.934 2794.4 960.578L2794.4 960.578C2827.13 969.223 2846.66 1002.77 2838.02 1035.5L2562.01 2080.63C2553.37 2113.36 2519.82 2132.89 2487.09 2124.24L2487.09 2124.24C2454.36 2115.6 2434.83 2082.05 2443.47 2049.32Z" stroke="#FF5532" stroke-width="27.5" stroke-miterlimit="8" fill="#FF5532" fill-rule="evenodd"/><path d="M2736.52 1051.6C2717.65 1023.49 2725.15 985.408 2753.26 966.541L2753.26 966.541C2781.37 947.674 2819.46 955.169 2838.32 983.281L3060.26 1313.98C3079.13 1342.09 3071.63 1380.17 3043.52 1399.04L3043.52 1399.04C3015.41 1417.91 2977.32 1410.41 2958.46 1382.3Z" stroke="#FF5532" stroke-width="27.5" stroke-miterlimit="8" fill="#FF5532" fill-rule="evenodd"/></g></svg>